<?xml version="1.0" standalone="no"?><!DOCTYPE svg PUBLIC "-//W3C//DTD SVG 1.1//EN" "http://www.w3.org/Graphics/SVG/1.1/DTD/svg11.dtd"><svg class="icon" width="200px" height="200.00px" viewBox="0 0 1024 1024" version="1.1" xmlns="http://www.w3.org/2000/svg"><path fill="#333333" d="M1016.142629 795.856457 891.642514 80.213943C884.893257 35.856457 847.786057 1.857829 802.177829 0L221.928229 0C175.572114 1.892571 137.786514 36.928 131.964343 82.357029L7.857371 795.893029C3.178057 810.2144 0 825.250743 0 841.142857c0 80.786286 65.499429 146.285714 146.285714 146.285714l731.428571 0c80.786286 0 146.285714-65.499429 146.285714-146.285714C1024 825.214171 1020.821943 810.2144 1016.142629 795.856457zM207.8208 73.142857l608.356571 0 109.677714 630.464C910.714514 698.322286 894.677943 694.857143 877.714286 694.857143L146.285714 694.857143c-16.963657 0-33.000229 3.465143-48.142629 8.749714L207.8208 73.142857zM877.714286 914.285714 146.285714 914.285714c-40.321829 0-73.142857-32.821029-73.142857-73.142857s32.821029-73.142857 73.142857-73.142857l731.428571 0c40.321829 0 73.142857 32.821029 73.142857 73.142857S918.036114 914.285714 877.714286 914.285714zM402.285714 512l219.428571 0c40.393143 0 73.142857-32.749714 73.142857-73.142857s-32.749714-73.142857-73.142857-73.142857c0-60.571429-49.106286-109.714286-109.714286-109.714286s-109.714286 49.142857-109.714286 109.714286c-40.393143 0-73.142857 32.749714-73.142857 73.142857S361.892571 512 402.285714 512zM841.142857 804.571429c-20.214857 0-36.571429 16.356571-36.571429 36.571429s16.356571 36.571429 36.571429 36.571429 36.571429-16.356571 36.571429-36.571429S861.357714 804.571429 841.142857 804.571429z" /></svg>