<?xml version="1.0" standalone="no"?><!DOCTYPE svg PUBLIC "-//W3C//DTD SVG 1.1//EN" "http://www.w3.org/Graphics/SVG/1.1/DTD/svg11.dtd"><svg t="1594278541353" class="icon" viewBox="0 0 1024 1024" version="1.1" xmlns="http://www.w3.org/2000/svg" p-id="12196" xmlns:xlink="http://www.w3.org/1999/xlink" width="200" height="200"><defs><style type="text/css"></style></defs><path d="M896 446.72a21.76 21.76 0 0 1-5.546667 15.786667 22.186667 22.186667 0 0 1-15.786666 6.826666H554.666667V150.186667a22.186667 22.186667 0 0 1 6.826666-15.786667 21.333333 21.333333 0 0 1 15.786667-6.4A341.333333 341.333333 0 0 1 896 446.72zM788.48 554.666667H469.333333V235.52a21.333333 21.333333 0 0 0-22.186666-21.333333 341.333333 341.333333 0 1 0 362.666666 362.666666 21.333333 21.333333 0 0 0-21.333333-22.186666z" p-id="12197" fill="#707070"></path></svg>