<?xml version="1.0" standalone="no"?><!DOCTYPE svg PUBLIC "-//W3C//DTD SVG 1.1//EN" "http://www.w3.org/Graphics/SVG/1.1/DTD/svg11.dtd"><svg t="1593656334186" class="icon" viewBox="0 0 1024 1024" version="1.1" xmlns="http://www.w3.org/2000/svg" p-id="12266" xmlns:xlink="http://www.w3.org/1999/xlink" width="200" height="200"><defs><style type="text/css"></style></defs><path d="M768 85.333333H256a85.333333 85.333333 0 0 0-85.333333 85.333334v682.666666a85.333333 85.333333 0 0 0 85.333333 85.333334h305.92a85.333333 85.333333 0 0 0 60.586667-25.173334l205.653333-205.653333a85.333333 85.333333 0 0 0 25.173333-60.586667V170.666667a85.333333 85.333333 0 0 0-85.333333-85.333334zM298.666667 277.333333a21.333333 21.333333 0 0 1 21.333333-21.333333h384a21.333333 21.333333 0 0 1 21.333333 21.333333v42.666667a21.333333 21.333333 0 0 1-21.333333 21.333333h-384a21.333333 21.333333 0 0 1-21.333333-21.333333z m234.666666 234.666667h-213.333333a21.333333 21.333333 0 0 1-21.333333-21.333333v-42.666667a21.333333 21.333333 0 0 1 21.333333-21.333333h213.333333a21.333333 21.333333 0 0 1 21.333334 21.333333v42.666667a21.333333 21.333333 0 0 1-21.333334 21.333333z m21.333334 349.013333V682.666667a42.666667 42.666667 0 0 1 42.666666-42.666667h178.346667z" p-id="12267" fill="#1871FF"></path></svg>