<?xml version="1.0" standalone="no"?><!DOCTYPE svg PUBLIC "-//W3C//DTD SVG 1.1//EN" "http://www.w3.org/Graphics/SVG/1.1/DTD/svg11.dtd"><svg class="icon" viewBox="0 0 1024 1024" version="1.1" xmlns="http://www.w3.org/2000/svg"><path d="M924.611765 259.011765H761.976471c-21.082353 0-42.164706-9.035294-57.22353-24.094118s-24.094118-37.647059-24.094117-58.729412V6.023529l243.952941 252.988236z" fill="#E86953" /><path d="M694.211765 686.682353V364.423529c0-16.564706-6.023529-30.117647-18.070589-40.658823-12.047059-9.035294-27.105882-13.552941-42.164705-10.541177l-203.294118 39.152942c-28.611765 6.023529-51.2 33.129412-51.2 61.741176v230.4c-4.517647-1.505882-10.541176-1.505882-15.058824-1.505882-37.647059 0-67.764706 27.105882-67.764705 60.235294s30.117647 60.235294 67.764705 60.235294 67.764706-27.105882 67.764706-60.235294v-143.058824l209.317647-46.682353v115.952942c-4.517647-1.505882-10.541176-1.505882-15.058823-1.505883-37.647059 0-67.764706 27.105882-67.764706 60.235294s30.117647 60.235294 67.764706 60.235294 67.764706-28.611765 67.764706-61.741176zM432.188235 504.470588v-91.858823c0-4.517647 4.517647-9.035294 7.529412-9.035294l201.788235-37.647059v91.858823l-209.317647 46.682353z" fill="#FFFFFF" /><path d="M432.188235 412.611765v91.858823l209.317647-46.682353v-91.858823l-201.788235 37.647059c-4.517647 0-7.529412 6.023529-7.529412 9.035294z" fill="#FF8D72" /><path d="M761.976471 259.011765c-21.082353 0-42.164706-9.035294-57.22353-24.094118s-24.094118-37.647059-24.094117-58.729412V6.023529H194.258824C171.670588 6.023529 150.588235 15.058824 135.529412 30.117647 120.470588 46.682353 111.435294 67.764706 111.435294 90.352941v843.294118c0 46.682353 36.141176 82.823529 81.317647 82.823529H843.294118c21.082353 0 42.164706-9.035294 57.223529-24.094117s24.094118-36.141176 24.094118-58.729412V259.011765H761.976471z m-135.529412 487.905882c-37.647059 0-67.764706-27.105882-67.764706-60.235294s30.117647-60.235294 67.764706-60.235294c4.517647 0 10.541176 0 15.058823 1.505882V512l-209.317647 46.682353v143.058823c0 33.129412-30.117647 60.235294-67.764706 60.235295s-67.764706-27.105882-67.764705-60.235295 30.117647-60.235294 67.764705-60.235294c4.517647 0 10.541176 0 15.058824 1.505883V412.611765c0-28.611765 22.588235-55.717647 51.2-61.741177L632.470588 313.223529c15.058824-3.011765 31.623529 1.505882 42.164706 10.541177 12.047059 9.035294 18.070588 24.094118 18.070588 40.658823v322.258824c1.505882 33.129412-30.117647 60.235294-66.258823 60.235294z" fill="#FF8D72" /></svg>