<?xml version="1.0" standalone="no"?><!DOCTYPE svg PUBLIC "-//W3C//DTD SVG 1.1//EN" "http://www.w3.org/Graphics/SVG/1.1/DTD/svg11.dtd"><svg class="icon" viewBox="0 0 1024 1024" version="1.1" xmlns="http://www.w3.org/2000/svg"><path d="M680.658824 3.011765" fill="#C2CDD3" /><path d="M924.611765 256H761.976471c-21.082353 0-42.164706-9.035294-57.22353-24.094118s-24.094118-37.647059-24.094117-58.729411V3.011765L924.611765 256z" fill="#9AA9B6" /><path d="M612.894118 364.423529C588.8 341.835294 557.176471 331.294118 516.517647 331.294118s-75.294118 12.047059-100.894118 37.647058c-25.6 25.6-39.152941 54.211765-39.152941 85.835295 0 21.082353 10.541176 30.117647 31.62353 30.117647 21.082353 0 31.623529-10.541176 31.623529-31.62353 1.505882-16.564706 9.035294-31.623529 22.588235-43.670588 13.552941-12.047059 30.117647-18.070588 51.2-18.070588s39.152941 6.023529 51.2 16.564706c12.047059 10.541176 18.070588 25.6 18.070589 45.17647 0 7.529412 0 15.058824-1.505883 21.082353-1.505882 6.023529-3.011765 12.047059-7.529412 18.070588-4.517647 6.023529-9.035294 12.047059-15.058823 18.070589-6.023529 6.023529-15.058824 13.552941-25.6 24.094117-21.082353 21.082353-37.647059 40.658824-48.188235 61.741177-10.541176 19.576471-16.564706 40.658824-16.564706 60.235294 0 7.529412 0 13.552941 1.505882 18.070588 0 4.517647 1.505882 7.529412 4.517647 10.541177 1.505882 3.011765 4.517647 4.517647 9.035294 4.517647 4.517647 1.505882 12.047059 1.505882 19.576471 1.505882 19.576471 0 30.117647-10.541176 30.117647-34.635294 0-7.529412 0-15.058824 1.505882-21.082353 1.505882-6.023529 3.011765-13.552941 7.529412-19.576471 3.011765-6.023529 9.035294-13.552941 16.564706-22.588235 7.529412-7.529412 16.564706-18.070588 30.117647-30.117647 19.576471-18.070588 34.635294-36.141176 43.670588-52.705882 9.035294-16.564706 13.552941-34.635294 13.552941-52.705883 1.505882-40.658824-10.541176-72.282353-33.129411-93.364706zM536.094118 737.882353c-4.517647-4.517647-9.035294-7.529412-15.058824-9.035294-6.023529-3.011765-12.047059-3.011765-18.070588-3.011765-6.023529 0-12.047059 1.505882-18.070588 3.011765-6.023529 3.011765-10.541176 6.023529-15.058824 9.035294-4.517647 4.517647-7.529412 9.035294-10.541176 13.552941-3.011765 4.517647-3.011765 10.541176-3.011765 16.564706 0 6.023529 1.505882 12.047059 3.011765 16.564706 3.011765 4.517647 6.023529 10.541176 10.541176 13.552941 4.517647 4.517647 9.035294 7.529412 15.058824 9.035294 6.023529 4.517647 12.047059 6.023529 18.070588 6.02353 6.023529 0 12.047059-1.505882 18.070588-3.011765 6.023529-3.011765 10.541176-6.023529 15.058824-9.035294 4.517647-4.517647 7.529412-9.035294 10.541176-13.552941 3.011765-4.517647 3.011765-10.541176 3.011765-16.564706 0-6.023529-1.505882-12.047059-3.011765-16.564706-3.011765-7.529412-7.529412-13.552941-10.541176-16.564706z" fill="#FFFFFF" /><path d="M924.611765 256H761.976471c-21.082353 0-42.164706-9.035294-57.22353-24.094118s-24.094118-37.647059-24.094117-58.729411V3.011765H194.258824C171.670588 3.011765 150.588235 10.541176 135.529412 27.105882s-24.094118 37.647059-24.094118 60.235294v843.294118c0 46.682353 36.141176 82.823529 81.317647 82.82353H843.294118c21.082353 0 42.164706-9.035294 57.223529-24.094118s24.094118-36.141176 24.094118-58.729412V256zM545.129412 786.070588c-3.011765 4.517647-6.023529 10.541176-10.541177 13.552941s-9.035294 7.529412-15.058823 9.035295c-6.023529 3.011765-12.047059 3.011765-18.070588 3.011764-6.023529 0-12.047059-1.505882-18.070589-3.011764-6.023529-3.011765-10.541176-6.023529-15.058823-9.035295-4.517647-4.517647-7.529412-9.035294-10.541177-13.552941-3.011765-4.517647-3.011765-10.541176-3.011764-16.564706 0-6.023529 1.505882-12.047059 3.011764-16.564706 3.011765-4.517647 6.023529-10.541176 10.541177-13.552941 4.517647-4.517647 9.035294-7.529412 15.058823-9.035294 6.023529-3.011765 12.047059-3.011765 18.070589-3.011765 6.023529 0 12.047059 1.505882 18.070588 3.011765 6.023529 3.011765 10.541176 6.023529 15.058823 9.035294 4.517647 4.517647 7.529412 9.035294 10.541177 13.552941 3.011765 4.517647 3.011765 10.541176 3.011764 16.564706 1.505882 4.517647 0 10.541176-3.011764 16.564706zM632.470588 508.988235c-9.035294 16.564706-24.094118 34.635294-43.670588 52.705883-12.047059 12.047059-22.588235 21.082353-30.117647 30.117647-7.529412 7.529412-13.552941 15.058824-16.564706 22.588235-4.517647 6.023529-6.023529 13.552941-7.529412 19.576471-1.505882 6.023529-1.505882 13.552941-1.505882 21.082353 0 24.094118-9.035294 34.635294-30.117647 34.635294-9.035294 0-15.058824 0-19.576471-1.505883-4.517647-1.505882-7.529412-3.011765-9.035294-4.517647-1.505882-3.011765-3.011765-6.023529-4.517647-10.541176-1.505882-4.517647-1.505882-10.541176-1.505882-18.070588 0-19.576471 6.023529-40.658824 16.564706-60.235295 10.541176-19.576471 27.105882-40.658824 48.188235-61.741176 10.541176-9.035294 18.070588-18.070588 25.6-24.094118 6.023529-6.023529 12.047059-12.047059 15.058823-18.070588 4.517647-6.023529 6.023529-12.047059 7.529412-18.070588 1.505882-6.023529 1.505882-12.047059 1.505883-21.082353 0-19.576471-6.023529-34.635294-18.070589-45.176471-12.047059-10.541176-30.117647-16.564706-51.2-16.564706s-39.152941 6.023529-52.705882 18.070589c-13.552941 12.047059-19.576471 27.105882-21.082353 43.670588-1.505882 21.082353-12.047059 31.623529-31.623529 31.623529-22.588235 0-31.623529-9.035294-31.62353-30.117647 0-31.623529 13.552941-61.741176 39.152941-85.835294 25.6-24.094118 58.729412-37.647059 99.388236-37.647059 40.658824 0 72.282353 10.541176 96.37647 33.129412 22.588235 21.082353 34.635294 52.705882 34.635294 93.364706 1.505882 19.576471-3.011765 37.647059-13.552941 52.705882z" fill="#C2CDD3" /></svg>