<?xml version="1.0" standalone="no"?><!DOCTYPE svg PUBLIC "-//W3C//DTD SVG 1.1//EN" "http://www.w3.org/Graphics/SVG/1.1/DTD/svg11.dtd"><svg class="icon" viewBox="0 0 1024 1024" version="1.1" xmlns="http://www.w3.org/2000/svg"><path d="M924.611765 256H761.976471c-21.082353 0-42.164706-9.035294-57.22353-24.094118s-24.094118-37.647059-24.094117-58.729411V3.011765L924.611765 256z" fill="#68ABE8" /><path d="M430.682353 380.988235l94.870588 140.047059 94.870588-140.047059H692.705882l-131.011764 186.729412L700.235294 768h-72.282353l-103.905882-153.6L421.647059 768h-72.282353l140.047059-200.282353-129.505883-186.729412h70.776471z" fill="#FFFFFF" /><path d="M761.976471 256c-21.082353 0-42.164706-9.035294-57.22353-24.094118s-24.094118-37.647059-24.094117-58.729411V3.011765H194.258824C171.670588 3.011765 150.588235 10.541176 135.529412 27.105882s-24.094118 37.647059-24.094118 60.235294v843.294118c0 46.682353 36.141176 82.823529 81.317647 82.82353H843.294118c21.082353 0 42.164706-9.035294 57.223529-24.094118s24.094118-36.141176 24.094118-58.729412V256H761.976471z m-134.02353 512l-103.905882-153.6L421.647059 768h-72.282353l140.047059-200.282353-129.505883-186.729412h72.282353l94.870589 140.047059 94.870588-140.047059h72.282353l-131.011765 186.729412L700.235294 768h-72.282353z" fill="#97D8FF" /></svg>