<?xml version="1.0" standalone="no"?><!DOCTYPE svg PUBLIC "-//W3C//DTD SVG 1.1//EN" "http://www.w3.org/Graphics/SVG/1.1/DTD/svg11.dtd"><svg class="icon" viewBox="0 0 1024 1024" version="1.1" xmlns="http://www.w3.org/2000/svg"><path d="M924.611765 256H761.976471c-21.082353 0-42.164706-9.035294-57.22353-24.094118s-24.094118-37.647059-24.094117-58.729411V3.011765L924.611765 256z" fill="#F7BE45" /><path d="M388.517647 546.635294c15.058824 12.047059 24.094118 28.611765 27.105882 52.705882h-37.647058c-3.011765-12.047059-7.529412-22.588235-15.058824-27.105882-7.529412-6.023529-18.070588-9.035294-31.623529-9.035294-16.564706 0-28.611765 6.023529-37.647059 18.070588-9.035294 12.047059-13.552941 28.611765-13.552941 49.694118s4.517647 37.647059 13.552941 49.694118c9.035294 12.047059 21.082353 18.070588 37.647059 18.070588 28.611765 0 45.176471-15.058824 48.188235-42.164706h37.647059c-4.517647 25.6-13.552941 43.670588-28.611765 55.717647-15.058824 12.047059-34.635294 18.070588-57.223529 18.070588-28.611765 0-51.2-9.035294-66.258824-28.611765-15.058824-18.070588-22.588235-40.658824-22.588235-70.77647 0-28.611765 7.529412-51.2 22.588235-69.270588 16.564706-19.576471 39.152941-28.611765 67.764706-28.611765 21.082353-1.505882 40.658824 3.011765 55.717647 13.552941zM597.835294 590.305882h-37.647059c-3.011765-10.541176-7.529412-16.564706-13.552941-21.082353-6.023529-4.517647-16.564706-6.023529-30.117647-6.023529-12.047059 0-19.576471 1.505882-25.6 4.517647-7.529412 3.011765-10.541176 9.035294-10.541176 16.564706 0 6.023529 4.517647 12.047059 15.058823 16.564706 6.023529 3.011765 18.070588 6.023529 37.647059 10.541176 21.082353 4.517647 37.647059 10.541176 46.682353 18.070589 15.058824 9.035294 22.588235 22.588235 22.588235 39.152941 0 39.152941-27.105882 58.729412-82.823529 58.729411-51.2 0-78.305882-22.588235-82.82353-64.752941h37.647059c1.505882 12.047059 7.529412 21.082353 13.552941 27.105883 6.023529 4.517647 16.564706 7.529412 31.62353 7.529411 30.117647 0 45.176471-9.035294 45.17647-25.6 0-9.035294-6.023529-16.564706-16.564706-21.082353-6.023529-3.011765-18.070588-6.023529-37.647058-10.541176-22.588235-4.517647-37.647059-10.541176-46.682353-16.564706-15.058824-9.035294-21.082353-21.082353-21.082353-37.647059s7.529412-30.117647 21.082353-39.152941c13.552941-9.035294 33.129412-15.058824 54.211764-15.058823 48.188235 0 75.294118 19.576471 79.811765 58.729411zM784.564706 590.305882h-37.647059c-3.011765-10.541176-7.529412-16.564706-13.552941-21.082353-6.023529-4.517647-16.564706-6.023529-30.117647-6.023529-12.047059 0-19.576471 1.505882-25.6 4.517647-7.529412 3.011765-10.541176 9.035294-10.541177 16.564706 0 6.023529 4.517647 12.047059 15.058824 16.564706 6.023529 3.011765 18.070588 6.023529 37.647059 10.541176 21.082353 4.517647 37.647059 10.541176 46.682353 18.070589 15.058824 9.035294 22.588235 22.588235 22.588235 39.152941 0 39.152941-27.105882 58.729412-82.823529 58.729411-51.2 0-78.305882-22.588235-82.82353-64.752941h37.647059c1.505882 12.047059 7.529412 21.082353 13.552941 27.105883 6.023529 4.517647 16.564706 7.529412 31.62353 7.529411 30.117647 0 45.176471-9.035294 45.17647-25.6 0-9.035294-6.023529-16.564706-16.564706-21.082353-6.023529-3.011765-18.070588-6.023529-37.647059-10.541176-22.588235-4.517647-37.647059-10.541176-46.682353-16.564706-15.058824-9.035294-21.082353-21.082353-21.082352-37.647059s7.529412-30.117647 21.082352-39.152941c13.552941-9.035294 33.129412-15.058824 54.211765-15.058823 48.188235 0 75.294118 19.576471 79.811765 58.729411z" fill="#FFFFFF" /><path d="M761.976471 256c-21.082353 0-42.164706-9.035294-57.22353-24.094118s-24.094118-37.647059-24.094117-58.729411V3.011765H194.258824C171.670588 3.011765 150.588235 10.541176 135.529412 27.105882s-24.094118 37.647059-24.094118 60.235294v843.294118c0 46.682353 36.141176 82.823529 81.317647 82.82353H843.294118c21.082353 0 42.164706-9.035294 57.223529-24.094118s24.094118-36.141176 24.094118-58.729412V256H761.976471zM388.517647 709.270588c-15.058824 12.047059-34.635294 18.070588-57.223529 18.070588-28.611765 0-51.2-9.035294-66.258824-28.611764-15.058824-18.070588-22.588235-40.658824-22.588235-70.776471 0-28.611765 7.529412-51.2 22.588235-69.270588 16.564706-19.576471 39.152941-28.611765 67.764706-28.611765 24.094118 0 43.670588 6.023529 57.223529 16.564706 15.058824 12.047059 24.094118 28.611765 27.105883 52.705882h-37.647059c-3.011765-12.047059-7.529412-22.588235-15.058824-27.105882-7.529412-6.023529-18.070588-9.035294-31.623529-9.035294-16.564706 0-28.611765 6.023529-37.647059 18.070588-9.035294 12.047059-13.552941 28.611765-13.552941 49.694118s4.517647 37.647059 13.552941 49.694118c9.035294 12.047059 21.082353 18.070588 37.647059 18.070588 28.611765 0 45.176471-15.058824 48.188235-42.164706h37.647059c-6.023529 22.588235-16.564706 40.658824-30.117647 52.705882z m132.517647 18.070588c-51.2 0-78.305882-22.588235-82.823529-64.752941h37.647059c1.505882 12.047059 7.529412 21.082353 13.552941 27.105883 6.023529 4.517647 16.564706 7.529412 31.623529 7.529411 30.117647 0 45.176471-9.035294 45.176471-25.6 0-9.035294-6.023529-16.564706-16.564706-21.082353-6.023529-3.011765-18.070588-6.023529-37.647059-10.541176-22.588235-4.517647-37.647059-10.541176-46.682353-16.564706-15.058824-9.035294-21.082353-21.082353-21.082353-37.647059s7.529412-30.117647 21.082353-39.152941c13.552941-9.035294 33.129412-15.058824 54.211765-15.058823 48.188235 0 75.294118 19.576471 79.811764 58.729411h-37.647058c-3.011765-10.541176-7.529412-16.564706-13.552942-21.082353-6.023529-4.517647-16.564706-6.023529-30.117647-6.023529-12.047059 0-19.576471 1.505882-25.6 4.517647-7.529412 3.011765-10.541176 9.035294-10.541176 16.564706 0 6.023529 4.517647 12.047059 15.058823 16.564706 6.023529 3.011765 18.070588 6.023529 37.647059 10.541176 21.082353 4.517647 37.647059 10.541176 46.682353 18.070589 15.058824 9.035294 22.588235 22.588235 22.588236 39.152941 0 39.152941-28.611765 58.729412-82.82353 58.729411z m186.729412 0c-51.2 0-78.305882-22.588235-82.82353-64.752941H662.588235c1.505882 12.047059 7.529412 21.082353 13.552941 27.105883 6.023529 4.517647 16.564706 7.529412 31.62353 7.529411 30.117647 0 45.176471-9.035294 45.17647-25.6 0-9.035294-6.023529-16.564706-16.564705-21.082353-6.023529-3.011765-18.070588-6.023529-37.647059-10.541176-22.588235-4.517647-37.647059-10.541176-46.682353-16.564706-15.058824-9.035294-21.082353-21.082353-21.082353-37.647059s7.529412-30.117647 21.082353-39.152941c13.552941-9.035294 33.129412-15.058824 54.211765-15.058823 48.188235 0 75.294118 19.576471 79.811764 58.729411h-37.647059c-3.011765-10.541176-7.529412-16.564706-13.552941-21.082353-6.023529-4.517647-16.564706-6.023529-30.117647-6.023529-12.047059 0-19.576471 1.505882-25.6 4.517647-7.529412 3.011765-10.541176 9.035294-10.541176 16.564706 0 6.023529 4.517647 12.047059 15.058823 16.564706 6.023529 3.011765 18.070588 6.023529 37.647059 10.541176 21.082353 4.517647 37.647059 10.541176 46.682353 18.070589 15.058824 9.035294 22.588235 22.588235 22.588235 39.152941 0 39.152941-28.611765 58.729412-82.823529 58.729411z" fill="#FFDA84" /></svg>