<?xml version="1.0" standalone="no"?><!DOCTYPE svg PUBLIC "-//W3C//DTD SVG 1.1//EN" "http://www.w3.org/Graphics/SVG/1.1/DTD/svg11.dtd"><svg class="icon" viewBox="0 0 1024 1024" version="1.1" xmlns="http://www.w3.org/2000/svg"><path d="M924.611765 256H761.976471c-21.082353 0-42.164706-9.035294-57.22353-24.094118s-24.094118-37.647059-24.094117-58.729411V3.011765L924.611765 256z" fill="#68ABE8" /><path d="M545.129412 380.988235c91.858824 0 138.541176 39.152941 138.541176 117.458824 0 79.811765-46.682353 118.964706-140.047059 118.964706h-100.894117v150.588235h-58.729412V380.988235h161.129412z m-102.4 185.22353h96.37647c28.611765 0 49.694118-6.023529 63.247059-16.564706 13.552941-10.541176 19.576471-28.611765 19.576471-52.705883s-7.529412-40.658824-21.082353-51.2c-13.552941-10.541176-34.635294-16.564706-63.247059-16.564705h-96.376471v137.035294z" fill="#FFFFFF" /><path d="M603.858824 447.247059c-13.552941-10.541176-34.635294-16.564706-63.247059-16.564706h-96.376471v135.529412h96.376471c28.611765 0 49.694118-6.023529 63.247059-16.564706 13.552941-10.541176 19.576471-28.611765 19.57647-52.705883s-6.023529-39.152941-19.57647-49.694117z" fill="#97D8FF" /><path d="M761.976471 256c-21.082353 0-42.164706-9.035294-57.22353-24.094118s-24.094118-37.647059-24.094117-58.729411V3.011765H194.258824C171.670588 3.011765 150.588235 10.541176 135.529412 27.105882s-24.094118 37.647059-24.094118 60.235294v843.294118c0 46.682353 36.141176 82.823529 81.317647 82.82353H843.294118c21.082353 0 42.164706-9.035294 57.223529-24.094118s24.094118-36.141176 24.094118-58.729412V256H761.976471zM543.623529 617.411765h-100.894117v150.588235h-58.729412V380.988235h161.129412c91.858824 0 138.541176 39.152941 138.541176 117.458824 0 79.811765-46.682353 118.964706-140.047059 118.964706z" fill="#97D8FF" /></svg>