<?xml version="1.0" standalone="no"?><!DOCTYPE svg PUBLIC "-//W3C//DTD SVG 1.1//EN" "http://www.w3.org/Graphics/SVG/1.1/DTD/svg11.dtd"><svg class="icon" viewBox="0 0 1024 1024" version="1.1" xmlns="http://www.w3.org/2000/svg"><path d="M924.611765 256H761.976471c-21.082353 0-42.164706-9.035294-57.22353-24.094118s-24.094118-37.647059-24.094117-58.729411V3.011765L924.611765 256z" fill="#68ABE8" /><path d="M335.811765 402.070588L406.588235 686.682353h1.505883l75.294117-284.611765H542.117647l75.294118 284.611765h1.505882l70.776471-284.611765H752.941176L647.529412 768h-60.235294l-73.788236-281.6H512L438.211765 768h-60.235294l-105.411765-365.929412h63.247059z" fill="#FFFFFF" /><path d="M761.976471 256c-21.082353 0-42.164706-9.035294-57.22353-24.094118s-24.094118-37.647059-24.094117-58.729411V3.011765H194.258824C171.670588 3.011765 150.588235 10.541176 135.529412 27.105882s-24.094118 37.647059-24.094118 60.235294v843.294118c0 46.682353 36.141176 82.823529 81.317647 82.82353H843.294118c21.082353 0 42.164706-9.035294 57.223529-24.094118s24.094118-36.141176 24.094118-58.729412V256H761.976471zM647.529412 768h-60.235294l-73.788236-281.6H512L438.211765 768h-60.235294l-105.411765-365.929412h63.247059L406.588235 686.682353h1.505883l75.294117-284.611765H542.117647l75.294118 284.611765h1.505882l70.776471-284.611765H752.941176L647.529412 768z" fill="#97D8FF" /></svg>