<?xml version="1.0" standalone="no"?><!DOCTYPE svg PUBLIC "-//W3C//DTD SVG 1.1//EN" "http://www.w3.org/Graphics/SVG/1.1/DTD/svg11.dtd"><svg class="icon" viewBox="0 0 1024 1024" version="1.1" xmlns="http://www.w3.org/2000/svg"><path d="M912.822857 263.314286H754.834286c-20.48 0-40.96-8.777143-55.588572-23.405715s-23.405714-36.571429-23.405714-57.051428V17.554286L912.822857 263.314286z" fill="#68ABE8" /><path d="M396.434286 532.48c14.628571 11.702857 23.405714 27.794286 26.331428 48.274286h-29.257143c-2.925714-13.165714-10.24-23.405714-19.017142-29.257143-8.777143-7.314286-20.48-10.24-35.108572-10.24-21.942857 0-38.034286 7.314286-48.274286 21.942857-10.24 13.165714-14.628571 32.182857-14.628571 54.125714 0 23.405714 4.388571 42.422857 14.628571 55.588572 10.24 14.628571 26.331429 20.48 49.737143 20.48 14.628571 0 26.331429-2.925714 36.571429-10.24 10.24-7.314286 17.554286-19.017143 20.48-35.108572h29.257143c-4.388571 23.405714-14.628571 40.96-30.72 54.125715-14.628571 11.702857-33.645714 19.017143-55.588572 19.017142-32.182857 0-57.051429-10.24-73.142857-30.72-14.628571-17.554286-21.942857-40.96-21.942857-71.68 0-29.257143 7.314286-52.662857 21.942857-71.68 16.091429-20.48 40.96-30.72 71.68-30.72 23.405714-1.462857 42.422857 4.388571 57.051429 16.091429zM579.291429 529.554286c13.165714 10.24 21.942857 26.331429 23.405714 48.274285h-30.72c-2.925714-13.165714-7.314286-21.942857-16.091429-27.794285-7.314286-5.851429-19.017143-8.777143-33.645714-8.777143-13.165714 0-23.405714 1.462857-30.72 5.851428-8.777143 4.388571-13.165714 11.702857-13.165714 21.942858 0 8.777143 4.388571 16.091429 14.628571 20.48 4.388571 2.925714 16.091429 7.314286 35.108572 11.702857 26.331429 8.777143 43.885714 14.628571 52.662857 19.017143 17.554286 10.24 24.868571 24.868571 24.868571 42.422857s-7.314286 32.182857-20.48 42.422857c-14.628571 10.24-33.645714 14.628571-58.514286 14.628571-24.868571 0-42.422857-4.388571-57.051428-14.628571-16.091429-11.702857-24.868571-30.72-26.331429-55.588572h30.72c2.925714 16.091429 7.314286 26.331429 16.091429 33.645715 8.777143 5.851429 20.48 8.777143 36.571428 8.777143 14.628571 0 26.331429-2.925714 36.571429-7.314286s13.165714-11.702857 13.165714-20.48c0-11.702857-5.851429-19.017143-19.017143-26.331429-4.388571-2.925714-17.554286-7.314286-39.497142-13.165714-24.868571-7.314286-39.497143-13.165714-45.348572-16.091429-14.628571-8.777143-23.405714-21.942857-23.405714-39.497142 0-17.554286 7.314286-30.72 21.942857-40.96 13.165714-8.777143 30.72-14.628571 52.662857-14.628572 24.868571 1.462857 42.422857 5.851429 55.588572 16.091429zM649.508571 517.851429l57.051429 163.84h1.462857l55.588572-163.84h32.182857L724.114286 716.8H687.542857l-71.68-198.948571h33.645714z" fill="#FFFFFF" /><path d="M912.822857 263.314286H754.834286c-20.48 0-40.96-8.777143-55.588572-23.405715s-23.405714-36.571429-23.405714-57.051428V17.554286H203.337143c-21.942857 0-42.422857 8.777143-57.051429 23.405714-14.628571 16.091429-23.405714 36.571429-23.405714 58.514286v819.2c0 45.348571 35.108571 80.457143 78.994286 80.457143H833.828571c20.48 0 40.96-8.777143 55.588572-23.405715s23.405714-35.108571 23.405714-57.051428V263.314286zM394.971429 702.171429c-14.628571 11.702857-33.645714 19.017143-55.588572 19.017142-32.182857 0-57.051429-10.24-73.142857-30.72-14.628571-17.554286-21.942857-40.96-21.942857-71.68 0-29.257143 7.314286-52.662857 21.942857-71.68 16.091429-20.48 40.96-30.72 71.68-30.72 23.405714 0 42.422857 5.851429 57.051429 17.554286 14.628571 11.702857 23.405714 27.794286 26.331428 48.274286h-29.257143c-2.925714-13.165714-10.24-23.405714-19.017143-29.257143-7.314286-8.777143-19.017143-11.702857-33.645714-11.702857-21.942857 0-38.034286 7.314286-48.274286 21.942857-10.24 13.165714-14.628571 32.182857-14.628571 54.125714 0 23.405714 4.388571 42.422857 14.628571 55.588572 10.24 14.628571 26.331429 20.48 49.737143 20.48 14.628571 0 26.331429-2.925714 36.571429-10.24 10.24-7.314286 17.554286-19.017143 20.48-35.108572h29.257143c-5.851429 23.405714-16.091429 40.96-32.182857 54.125715z m191.634285 2.925714c-14.628571 10.24-33.645714 14.628571-58.514285 14.628571-24.868571 0-42.422857-4.388571-57.051429-14.628571-16.091429-11.702857-24.868571-30.72-26.331429-55.588572h30.72c2.925714 16.091429 7.314286 26.331429 16.091429 33.645715 8.777143 5.851429 20.48 8.777143 36.571429 8.777143 14.628571 0 26.331429-2.925714 36.571428-7.314286s13.165714-11.702857 13.165714-20.48c0-11.702857-5.851429-19.017143-19.017142-26.331429-4.388571-2.925714-17.554286-7.314286-39.497143-13.165714-24.868571-7.314286-39.497143-13.165714-45.348572-16.091429-14.628571-8.777143-23.405714-21.942857-23.405714-39.497142 0-17.554286 7.314286-30.72 21.942857-40.96 13.165714-8.777143 30.72-14.628571 52.662857-14.628572 23.405714 0 40.96 4.388571 54.125715 14.628572 13.165714 10.24 21.942857 26.331429 23.405714 48.274285h-30.72c-2.925714-13.165714-7.314286-21.942857-16.091429-27.794285-7.314286-5.851429-19.017143-8.777143-33.645714-8.777143-13.165714 0-23.405714 1.462857-30.72 5.851428-8.777143 4.388571-13.165714 11.702857-13.165714 21.942857 0 8.777143 4.388571 16.091429 14.628571 20.48 4.388571 2.925714 16.091429 7.314286 35.108572 11.702858 26.331429 8.777143 43.885714 14.628571 52.662857 19.017142 17.554286 10.24 24.868571 24.868571 24.868571 42.422858 1.462857 20.48-4.388571 33.645714-19.017143 43.885714z m137.508572 11.702857H687.542857l-71.68-198.948571h32.182857l57.051429 163.84h1.462857l55.588571-163.84h32.182858L724.114286 716.8z" fill="#97D8FF" /></svg>