<?xml version="1.0" standalone="no"?><!DOCTYPE svg PUBLIC "-//W3C//DTD SVG 1.1//EN" "http://www.w3.org/Graphics/SVG/1.1/DTD/svg11.dtd"><svg class="icon" viewBox="0 0 1024 1024" version="1.1" xmlns="http://www.w3.org/2000/svg"><path d="M924.611765 256H761.976471c-21.082353 0-42.164706-9.035294-57.22353-24.094118s-24.094118-37.647059-24.094117-58.729411V3.011765L924.611765 256z" fill="#E45353" /><path d="M924.611765 256" fill="#FF7272" /><path d="M713.788235 686.682353c-37.647059-3.011765-73.788235-16.564706-102.4-42.164706-57.223529 12.047059-109.929412 30.117647-164.141176 52.705882-42.164706 75.294118-82.823529 114.447059-117.458824 114.447059-7.529412 0-15.058824-1.505882-21.082353-6.023529-15.058824-6.023529-24.094118-21.082353-24.094117-37.647059 0-12.047059 3.011765-46.682353 134.023529-103.905882 30.117647-54.211765 54.211765-111.435294 73.788235-171.670589-16.564706-33.129412-52.705882-114.447059-27.105882-156.611764 7.529412-15.058824 24.094118-24.094118 42.164706-22.588236 13.552941 0 27.105882 6.023529 36.141176 18.070589 18.070588 25.6 16.564706 76.8-7.529411 155.105882 22.588235 42.164706 51.2 78.305882 85.835294 109.929412 28.611765-6.023529 57.223529-9.035294 87.341176-9.035294 64.752941 1.505882 73.788235 31.623529 73.788236 49.694117 0 49.694118-46.682353 49.694118-69.270589 49.694118z m-387.011764 85.835294l4.517647-1.505882c19.576471-7.529412 34.635294-21.082353 45.17647-39.152941-19.576471 9.035294-36.141176 22.588235-49.694117 40.658823z m183.717647-414.117647h-4.517647c-1.505882 0-4.517647 0-6.02353 1.505882-6.023529 24.094118-1.505882 48.188235 9.035294 70.776471 9.035294-24.094118 9.035294-49.694118 1.505883-72.282353z m10.541176 200.282353l-1.505882 3.011765-1.505883-1.505883c-12.047059 31.623529-25.6 63.247059-40.658823 93.364706l3.011765-1.505882v3.011765c30.117647-10.541176 61.741176-19.576471 93.364705-27.105883l-1.505882-1.505882h4.517647c-21.082353-21.082353-40.658824-43.670588-55.717647-67.764706zM707.764706 632.470588c-12.047059 0-24.094118 0-36.141177 3.011765 13.552941 7.529412 27.105882 9.035294 40.658824 10.541176 9.035294 1.505882 19.576471 0 27.105882-3.011764 1.505882-4.517647-4.517647-10.541176-31.623529-10.541177z" fill="#FFFFFF" /><path d="M326.776471 772.517647l4.517647-1.505882c19.576471-7.529412 34.635294-21.082353 45.17647-39.152941-19.576471 9.035294-36.141176 22.588235-49.694117 40.658823zM521.035294 558.682353l-1.505882 3.011765-1.505883-1.505883c-12.047059 31.623529-25.6 63.247059-40.658823 93.364706l3.011765-1.505882v3.011765c30.117647-10.541176 61.741176-19.576471 93.364705-27.105883l-1.505882-1.505882h4.517647c-21.082353-21.082353-40.658824-43.670588-55.717647-67.764706zM510.494118 358.4h-4.517647c-1.505882 0-4.517647 0-6.02353 1.505882-6.023529 24.094118-1.505882 48.188235 9.035294 70.776471 9.035294-24.094118 9.035294-49.694118 1.505883-72.282353zM707.764706 632.470588c-12.047059 0-24.094118 0-36.141177 3.011765 13.552941 7.529412 27.105882 9.035294 40.658824 10.541176 9.035294 1.505882 19.576471 0 27.105882-3.011764 1.505882-4.517647-4.517647-10.541176-31.623529-10.541177z" fill="#FF7272" /><path d="M761.976471 256c-21.082353 0-42.164706-9.035294-57.22353-24.094118s-24.094118-37.647059-24.094117-58.729411V3.011765H194.258824C171.670588 3.011765 150.588235 10.541176 135.529412 27.105882s-24.094118 37.647059-24.094118 60.235294v843.294118c0 46.682353 36.141176 82.823529 81.317647 82.82353H843.294118c21.082353 0 42.164706-9.035294 57.223529-24.094118s24.094118-36.141176 24.094118-58.729412V256H761.976471zM783.058824 640c0 46.682353-45.176471 46.682353-69.270589 46.682353-37.647059-3.011765-73.788235-16.564706-102.4-42.164706-57.223529 12.047059-109.929412 30.117647-164.141176 52.705882-42.164706 75.294118-82.823529 114.447059-117.458824 114.447059-7.529412 0-15.058824-1.505882-21.082353-6.023529-15.058824-6.023529-24.094118-21.082353-24.094117-37.647059 0-12.047059 3.011765-46.682353 134.023529-103.905882 30.117647-54.211765 54.211765-111.435294 73.788235-171.670589-16.564706-33.129412-52.705882-114.447059-27.105882-156.611764 7.529412-15.058824 24.094118-24.094118 42.164706-22.588236 13.552941 0 27.105882 6.023529 36.141176 18.070589 18.070588 25.6 16.564706 76.8-7.529411 155.105882 22.588235 42.164706 51.2 78.305882 85.835294 109.929412 28.611765-6.023529 57.223529-9.035294 87.341176-9.035294 64.752941 4.517647 75.294118 34.635294 73.788236 52.705882z" fill="#FF7272" /></svg>