<?xml version="1.0" standalone="no"?><!DOCTYPE svg PUBLIC "-//W3C//DTD SVG 1.1//EN" "http://www.w3.org/Graphics/SVG/1.1/DTD/svg11.dtd"><svg class="icon" viewBox="0 0 1024 1024" version="1.1" xmlns="http://www.w3.org/2000/svg"><path d="M340.329412 462.305882h52.705882v84.329412h-52.705882zM633.976471 462.305882h46.682353v84.329412h-46.682353z" fill="#FA6A68" /><path d="M393.035294 597.835294h-105.411765V409.6h105.411765v-105.411765h-286.117647v391.529412h286.117647zM633.976471 304.188235v105.411765h99.388235v188.235294h-99.388235v97.882353h286.117647v-391.529412z" fill="#FA6A68" /><path d="M633.976471 695.717647v180.705882h-240.941177v-180.705882h-286.117647v234.917647c0 45.176471 37.647059 82.823529 82.823529 82.82353h647.529412c45.176471 0 82.823529-37.647059 82.82353-82.82353V695.717647h-286.117647z" fill="#89D543" /><path d="M189.741176 3.011765c-45.176471 0-82.823529 37.647059-82.823529 82.823529v218.352941h286.117647V3.011765H189.741176zM837.270588 3.011765H633.976471v301.17647h286.117647V85.835294c0-45.176471-36.141176-82.823529-82.82353-82.823529z" fill="#60CEF8" /><path d="M340.329412 545.129412h341.835294v-84.329412H340.329412v84.329412z m393.035294-135.529412v186.729412H287.623529V409.6h445.741177z" fill="#FFFFFF" /><path d="M393.035294 462.305882h240.941177v84.329412h-240.941177zM393.035294 597.835294h240.941177v278.588235h-240.941177zM393.035294 3.011765h240.941177v406.588235h-240.941177z" fill="#FDB84B" /></svg>