<?xml version="1.0" standalone="no"?><!DOCTYPE svg PUBLIC "-//W3C//DTD SVG 1.1//EN" "http://www.w3.org/Graphics/SVG/1.1/DTD/svg11.dtd"><svg t="1593656815464" class="icon" viewBox="0 0 1024 1024" version="1.1" xmlns="http://www.w3.org/2000/svg" p-id="12638" xmlns:xlink="http://www.w3.org/1999/xlink" width="200" height="200"><defs><style type="text/css"></style></defs><path d="M853.333333 256h-238.506666a42.666667 42.666667 0 0 1-29.866667-12.373333l-60.586667-60.586667a42.666667 42.666667 0 0 0-29.866666-12.373333H170.666667a85.333333 85.333333 0 0 0-85.333334 85.333333v512a85.333333 85.333333 0 0 0 85.333334 85.333333h682.666666a85.333333 85.333333 0 0 0 85.333334-85.333333V341.333333a85.333333 85.333333 0 0 0-85.333334-85.333333z m-298.666666 320a21.333333 21.333333 0 0 1-21.333334 21.333333H426.666667v106.666667a21.333333 21.333333 0 0 1-21.333334 21.333333h-42.666666a21.333333 21.333333 0 0 1-21.333334-21.333333V597.333333H234.666667a21.333333 21.333333 0 0 1-21.333334-21.333333v-42.666667a21.333333 21.333333 0 0 1 21.333334-21.333333H341.333333V405.333333a21.333333 21.333333 0 0 1 21.333334-21.333333h42.666666a21.333333 21.333333 0 0 1 21.333334 21.333333V512h106.666666a21.333333 21.333333 0 0 1 21.333334 21.333333z" p-id="12639" fill="#1871FF"></path></svg>