<?xml version="1.0" standalone="no"?><!DOCTYPE svg PUBLIC "-//W3C//DTD SVG 1.1//EN" "http://www.w3.org/Graphics/SVG/1.1/DTD/svg11.dtd"><svg t="1593502711111" class="icon" viewBox="0 0 1024 1024" version="1.1" xmlns="http://www.w3.org/2000/svg" p-id="11717" xmlns:xlink="http://www.w3.org/1999/xlink" width="200" height="200"><defs><style type="text/css"></style></defs><path d="M896 213.333333a85.333333 85.333333 0 0 0-85.333333-85.333333H213.333333a85.333333 85.333333 0 0 0-85.333333 85.333333v256a85.333333 85.333333 0 0 0 85.333333 85.333334h597.333334a85.333333 85.333333 0 0 0 85.333333-85.333334z m-85.333333 0v85.333334h-117.76a64 64 0 0 0-60.16 42.666666 128 128 0 0 1-241.493334 0 64 64 0 0 0-60.16-42.666666H213.333333V213.333333z m-117.76 426.666667a64 64 0 0 0-60.16 42.666667 128 128 0 0 1-241.493334 0 64 64 0 0 0-60.16-42.666667H128v170.666667a85.333333 85.333333 0 0 0 85.333333 85.333333h597.333334a85.333333 85.333333 0 0 0 85.333333-85.333333v-170.666667z" p-id="11718" fill="#707070"></path></svg>