<?xml version="1.0" standalone="no"?><!DOCTYPE svg PUBLIC "-//W3C//DTD SVG 1.1//EN" "http://www.w3.org/Graphics/SVG/1.1/DTD/svg11.dtd"><svg t="1594708029772" class="icon" viewBox="0 0 1024 1024" version="1.1" xmlns="http://www.w3.org/2000/svg" p-id="12329" xmlns:xlink="http://www.w3.org/1999/xlink" width="200" height="200"><defs><style type="text/css"></style></defs><path d="M369.066667 594.773333l225.706666-225.706666a21.333333 21.333333 0 0 1 30.293334 0l29.866666 29.866666a21.333333 21.333333 0 0 1 0 30.293334l-225.706666 225.706666a21.333333 21.333333 0 0 1-30.293334 0l-29.866666-29.866666a21.333333 21.333333 0 0 1 0-30.293334zM896 326.826667V341.333333a170.666667 170.666667 0 0 1-50.346667 121.173334L725.333333 583.253333a57.6 57.6 0 0 1-81.066666 0l-4.266667-4.693333a21.333333 21.333333 0 0 1 0-29.866667l146.773333-146.773333A85.333333 85.333333 0 0 0 810.666667 341.333333v-14.506666a85.333333 85.333333 0 0 0-25.173334-60.586667l-27.733333-27.733333A85.333333 85.333333 0 0 0 697.173333 213.333333H682.666667a85.333333 85.333333 0 0 0-60.586667 25.173334L475.306667 384a21.333333 21.333333 0 0 1-29.866667 0l-4.693333-4.693333a57.6 57.6 0 0 1 0-81.066667l120.746666-121.173333A170.666667 170.666667 0 0 1 682.666667 128h14.506666a170.666667 170.666667 0 0 1 120.746667 49.92l28.16 28.16A170.666667 170.666667 0 0 1 896 326.826667zM548.693333 640a21.333333 21.333333 0 0 1 29.866667 0l4.693333 4.693333a57.6 57.6 0 0 1 0 81.066667l-121.6 121.6A170.666667 170.666667 0 0 1 341.333333 896h-14.506666a170.666667 170.666667 0 0 1-120.746667-49.92l-28.16-28.16A170.666667 170.666667 0 0 1 128 697.6V682.666667a170.666667 170.666667 0 0 1 50.346667-121.173334L298.666667 440.746667a57.6 57.6 0 0 1 81.066666 0l4.693334 4.693333a21.333333 21.333333 0 0 1 0 29.866667l-145.92 146.773333A85.333333 85.333333 0 0 0 213.333333 682.666667v14.506666a85.333333 85.333333 0 0 0 25.173334 60.586667l27.733333 27.733333a85.333333 85.333333 0 0 0 60.586667 25.173334H341.333333a85.333333 85.333333 0 0 0 61.013334-25.173334z" p-id="12330" fill="#707070"></path></svg>