<?xml version="1.0" standalone="no"?><!DOCTYPE svg PUBLIC "-//W3C//DTD SVG 1.1//EN" "http://www.w3.org/Graphics/SVG/1.1/DTD/svg11.dtd"><svg t="1593657064515" class="icon" viewBox="0 0 1024 1024" version="1.1" xmlns="http://www.w3.org/2000/svg" p-id="2859" xmlns:xlink="http://www.w3.org/1999/xlink" width="200" height="200"><defs><style type="text/css"></style></defs><path d="M531.2 0h57.6v96h288c16 0 35.2 0 48 12.8 9.6 19.2 9.6 38.4 9.6 60.8v620.8c0 35.2 3.2 70.4-3.2 105.6-3.2 25.6-28.8 25.6-44.8 25.6H588.8V1024H528c-147.2-32-291.2-64-438.4-96V96l441.6-96zM361.6 313.6c-22.4 51.2-48 99.2-64 153.6-16-48-35.2-96-54.4-144-28.8 0-57.6 3.2-83.2 3.2 28.8 64 60.8 124.8 89.6 188.8-35.2 60.8-64 124.8-99.2 185.6 28.8 0 54.4 3.2 83.2 3.2 19.2-48 44.8-96 60.8-147.2 16 54.4 41.6 102.4 64 153.6 32 3.2 60.8 3.2 92.8 6.4-35.2-70.4-70.4-137.6-105.6-208 35.2-67.2 70.4-134.4 102.4-201.6-28.8 3.2-57.6 6.4-86.4 6.4z m371.2 32v89.6h134.4v-89.6h-134.4z m0-147.2V288h134.4v-89.6h-134.4z m0 284.8v89.6h134.4v-89.6h-134.4z m0 140.8v89.6h134.4V624h-134.4z m0 137.6v89.6h134.4v-89.6h-134.4z m-166.4-416v89.6h112v-89.6h-112z m0-147.2V288h112v-89.6h-112z m0 284.8v89.6h112v-89.6h-112z m0 140.8v89.6h112V624h-112z m0 137.6v89.6h112v-89.6h-112z" fill="#217346" p-id="2860"></path></svg>