<?xml version="1.0" standalone="no"?><!DOCTYPE svg PUBLIC "-//W3C//DTD SVG 1.1//EN" "http://www.w3.org/Graphics/SVG/1.1/DTD/svg11.dtd"><svg t="1593657141858" class="icon" viewBox="0 0 1024 1024" version="1.1" xmlns="http://www.w3.org/2000/svg" p-id="3279" xmlns:xlink="http://www.w3.org/1999/xlink" width="200" height="200"><defs><style type="text/css"></style></defs><path d="M1008 86.4H579.2V35.2c0-6.4-3.2-9.6-6.4-12.8-3.2-3.2-9.6-3.2-12.8-3.2L14.4 156.8c-6.4 3.2-12.8 9.6-12.8 16v715.2c0 6.4 6.4 12.8 12.8 16L560 1006.4h3.2c3.2 0 6.4 0 9.6-3.2 3.2-3.2 6.4-6.4 6.4-12.8v-51.2h425.6c9.6 0 16-6.4 16-16V102.4c3.2-9.6-3.2-16-12.8-16zM374.4 460.8c0 57.6-44.8 102.4-102.4 102.4h-67.2v112c0 9.6-6.4 16-16 16s-16-9.6-16-16V336c0-9.6 6.4-16 16-16h86.4c57.6 0 102.4 44.8 102.4 102.4-3.2-3.2-3.2 38.4-3.2 38.4z m614.4 443.2H579.2v-137.6h291.2c9.6 0 16-6.4 16-16s-6.4-16-16-16H579.2v-67.2h291.2c9.6 0 16-6.4 16-16s-6.4-16-16-16H579.2V512c28.8 35.2 70.4 57.6 118.4 57.6 86.4 0 153.6-67.2 153.6-153.6 0-9.6-6.4-16-16-16s-16 6.4-16 16c0 64-54.4 118.4-118.4 118.4S582.4 480 582.4 416s54.4-118.4 118.4-118.4c9.6 0 16-6.4 16-16s-6.4-25.6-16-25.6c-48 0-92.8 22.4-118.4 57.6V118.4H992v785.6h-3.2z" fill="#b7472a" p-id="3280"></path><path d="M273.6 352h-67.2v182.4h67.2c38.4 0 67.2-32 67.2-67.2v-44.8c1.6-44.8-28.8-70.4-67.2-70.4z m612.8 22.4c0-86.4-67.2-153.6-153.6-153.6-9.6 0-16 6.4-16 16v137.6c0 9.6 6.4 16 16 16h137.6c9.6 3.2 16-3.2 16-16z" fill="#b7472a" p-id="3281"></path></svg>