<?xml version="1.0" standalone="no"?><!DOCTYPE svg PUBLIC "-//W3C//DTD SVG 1.1//EN" "http://www.w3.org/Graphics/SVG/1.1/DTD/svg11.dtd"><svg t="1593657110044" class="icon" viewBox="0 0 1024 1024" version="1.1" xmlns="http://www.w3.org/2000/svg" p-id="3045" xmlns:xlink="http://www.w3.org/1999/xlink" width="200" height="200"><defs><style type="text/css"></style></defs><path d="M531.2 0h57.6v96h288c16 0 35.2 0 48 12.8 9.6 19.2 9.6 38.4 9.6 60.8v620.8c0 35.2 3.2 70.4-3.2 105.6-3.2 25.6-28.8 25.6-44.8 25.6H588.8V1024H528c-147.2-32-291.2-64-438.4-96V96l441.6-96z m-240 323.2l-48 278.4c-9.6-89.6-22.4-179.2-35.2-268.8-19.2 0-38.4 3.2-57.6 3.2 16 124.8 38.4 249.6 57.6 374.4 22.4 3.2 44.8 3.2 64 6.4 16-89.6 32-182.4 44.8-272 12.8 92.8 32 188.8 44.8 281.6 22.4-3.2 51.2 9.6 70.4 0 28.8-137.6 51.2-275.2 76.8-412.8-22.4 3.2-44.8 3.2-67.2 3.2C428.8 416 412.8 512 400 611.2c-16-96-32-192-48-284.8-16-6.4-38.4-6.4-60.8-3.2z m281.6-144v73.6h236.8v41.6H572.8v51.2h236.8v41.6H572.8v51.2h236.8V480H572.8v51.2h236.8V576H572.8v51.2h236.8v41.6H572.8V720h236.8v41.6H572.8v83.2h300.8V179.2H572.8z" fill="#2b579a" p-id="3046"></path></svg>