<?xml version="1.0" standalone="no"?><!DOCTYPE svg PUBLIC "-//W3C//DTD SVG 1.1//EN" "http://www.w3.org/Graphics/SVG/1.1/DTD/svg11.dtd"><svg t="1593502848388" class="icon" viewBox="0 0 1024 1024" version="1.1" xmlns="http://www.w3.org/2000/svg" p-id="12987" xmlns:xlink="http://www.w3.org/1999/xlink" width="200" height="200"><defs><style type="text/css"></style></defs><path d="M896 213.333333a85.333333 85.333333 0 0 0-85.333333-85.333333H213.333333a85.333333 85.333333 0 0 0-85.333333 85.333333v597.333334a85.333333 85.333333 0 0 0 85.333333 85.333333h597.333334a85.333333 85.333333 0 0 0 85.333333-85.333333z m-85.333333 504.32a21.333333 21.333333 0 0 1-21.333334 21.76 20.906667 20.906667 0 0 1-16.64-8.106666l-170.666666-213.333334a20.906667 20.906667 0 0 0-16.64-8.106666 20.48 20.48 0 0 0-16.64 8.106666l-97.706667 122.88a20.48 20.48 0 0 1-16.64 8.106667 21.76 21.76 0 0 1-17.066667-8.533333l-42.666666-58.026667a23.04 23.04 0 0 0-17.493334-8.533333 21.76 21.76 0 0 0-17.066666 8.533333L251.733333 730.88a20.48 20.48 0 0 1-17.066666 8.533333 20.906667 20.906667 0 0 1-21.333334-21.333333V213.333333h597.333334zM405.333333 469.333333A64 64 0 1 0 341.333333 405.333333 64 64 0 0 0 405.333333 469.333333z" p-id="12988" fill="#707070"></path></svg>