<?xml version="1.0" standalone="no"?><!DOCTYPE svg PUBLIC "-//W3C//DTD SVG 1.1//EN" "http://www.w3.org/Graphics/SVG/1.1/DTD/svg11.dtd"><svg t="1593592528391" class="icon" viewBox="0 0 1024 1024" version="1.1" xmlns="http://www.w3.org/2000/svg" p-id="12032" xmlns:xlink="http://www.w3.org/1999/xlink" width="200" height="200"><defs><style type="text/css"></style></defs><path d="M512 85.333333a426.666667 426.666667 0 1 0 426.666667 426.666667A426.666667 426.666667 0 0 0 512 85.333333z m0 768a341.333333 341.333333 0 1 1 341.333333-341.333333 341.333333 341.333333 0 0 1-341.333333 341.333333z m37.546667-356.693333V277.333333a21.333333 21.333333 0 0 0-21.333334-21.333333h-32.426666a21.333333 21.333333 0 0 0-21.333334 21.333333v241.493334a22.613333 22.613333 0 0 0 6.4 14.933333l170.666667 170.666667a21.76 21.76 0 0 0 30.293333 0l22.613334-22.613334a21.76 21.76 0 0 0 0-30.293333z" p-id="12033" fill="#707070"></path></svg>