<?xml version="1.0" standalone="no"?><!DOCTYPE svg PUBLIC "-//W3C//DTD SVG 1.1//EN" "http://www.w3.org/Graphics/SVG/1.1/DTD/svg11.dtd"><svg t="1594345854020" class="icon" viewBox="0 0 1024 1024" version="1.1" xmlns="http://www.w3.org/2000/svg" p-id="12315" xmlns:xlink="http://www.w3.org/1999/xlink" width="200" height="200"><defs><style type="text/css"></style></defs><path d="M720.64 791.466667A42.666667 42.666667 0 0 1 682.666667 853.333333H85.333333a42.666667 42.666667 0 0 1-37.973333-61.866666l61.44-123.306667A128 128 0 0 1 223.573333 597.333333h320.853334a128 128 0 0 1 114.773333 70.826667zM384 512a170.666667 170.666667 0 1 0-170.666667-170.666667 170.666667 170.666667 0 0 0 170.666667 170.666667z m576-85.333333H853.333333V320a21.333333 21.333333 0 0 0-21.333333-21.333333h-42.666667a21.333333 21.333333 0 0 0-21.333333 21.333333V426.666667h-106.666667a21.333333 21.333333 0 0 0-21.333333 21.333333v42.666667a21.333333 21.333333 0 0 0 21.333333 21.333333H768v106.666667a21.333333 21.333333 0 0 0 21.333333 21.333333h42.666667a21.333333 21.333333 0 0 0 21.333333-21.333333V512h106.666667a21.333333 21.333333 0 0 0 21.333333-21.333333v-42.666667a21.333333 21.333333 0 0 0-21.333333-21.333333z" p-id="12316" fill="#707070"></path></svg>