<?xml version="1.0" standalone="no"?><!DOCTYPE svg PUBLIC "-//W3C//DTD SVG 1.1//EN" "http://www.w3.org/Graphics/SVG/1.1/DTD/svg11.dtd"><svg t="1593502784430" class="icon" viewBox="0 0 1024 1024" version="1.1" xmlns="http://www.w3.org/2000/svg" p-id="12471" xmlns:xlink="http://www.w3.org/1999/xlink" width="200" height="200"><defs><style type="text/css"></style></defs><path d="M853.333333 170.666667H170.666667a85.333333 85.333333 0 0 0-85.333334 85.333333v512a85.333333 85.333333 0 0 0 85.333334 85.333333h682.666666a85.333333 85.333333 0 0 0 85.333334-85.333333V256a85.333333 85.333333 0 0 0-85.333334-85.333333z m0 597.333333H170.666667V256h682.666666z m-376.746666-118.613333l165.973333-110.933334a31.573333 31.573333 0 0 0 0-52.906666l-165.973333-110.933334A32 32 0 0 0 426.666667 401.066667v221.866666a32 32 0 0 0 49.92 26.453334z" p-id="12472" fill="#707070"></path></svg>